<mxfile host="app.diagrams.net" modified="2023-10-29T19:17:04.579Z" agent="Mozilla/5.0 (Windows NT 10.0; Win64; x64) AppleWebKit/537.36 (KHTML, like Gecko) Chrome/116.0.0.0 Safari/537.36 OPR/102.0.0.0" etag="3Ovkw9vGjqb6mwZW41CZ" version="22.0.8" type="device">
  <diagram name="Page-1" id="13e1069c-82ec-6db2-03f1-153e76fe0fe0">
    <mxGraphModel dx="1436" dy="644" grid="1" gridSize="10" guides="1" tooltips="1" connect="1" arrows="1" fold="1" page="1" pageScale="1" pageWidth="1100" pageHeight="850" background="none" math="0" shadow="0">
      <root>
        <mxCell id="0" />
        <mxCell id="1" parent="0" />
        <mxCell id="7baba1c4bc27f4b0-2" value=":Page" style="shape=umlLifeline;perimeter=lifelinePerimeter;whiteSpace=wrap;html=1;container=1;collapsible=0;recursiveResize=0;outlineConnect=0;rounded=1;shadow=0;comic=0;labelBackgroundColor=none;strokeWidth=1;fontFamily=Verdana;fontSize=12;align=center;" parent="1" vertex="1">
          <mxGeometry x="260" y="80" width="140" height="590" as="geometry" />
        </mxCell>
        <mxCell id="KCVy7kyQTgMbln99Nbsg-12" value="" style="html=1;points=[[0,0,0,0,5],[0,1,0,0,-5],[1,0,0,0,5],[1,1,0,0,-5]];perimeter=orthogonalPerimeter;outlineConnect=0;targetShapes=umlLifeline;portConstraint=eastwest;newEdgeStyle={&quot;curved&quot;:0,&quot;rounded&quot;:0};" vertex="1" parent="7baba1c4bc27f4b0-2">
          <mxGeometry x="65" y="80" width="10" height="30" as="geometry" />
        </mxCell>
        <mxCell id="KCVy7kyQTgMbln99Nbsg-80" value="Open add product&lt;br&gt;&amp;nbsp;form" style="text;html=1;align=center;verticalAlign=middle;resizable=0;points=[];autosize=1;strokeColor=none;fillColor=none;" vertex="1" parent="7baba1c4bc27f4b0-2">
          <mxGeometry x="75" y="100" width="120" height="40" as="geometry" />
        </mxCell>
        <mxCell id="KCVy7kyQTgMbln99Nbsg-79" value="Click on add Prduct" style="text;html=1;align=center;verticalAlign=middle;resizable=0;points=[];autosize=1;strokeColor=none;fillColor=none;" vertex="1" parent="7baba1c4bc27f4b0-2">
          <mxGeometry x="-80" y="80" width="130" height="30" as="geometry" />
        </mxCell>
        <mxCell id="KCVy7kyQTgMbln99Nbsg-33" style="edgeStyle=orthogonalEdgeStyle;rounded=0;orthogonalLoop=1;jettySize=auto;html=1;curved=0;" edge="1" parent="7baba1c4bc27f4b0-2">
          <mxGeometry relative="1" as="geometry">
            <mxPoint x="-90" y="139.9965217391305" as="sourcePoint" />
            <mxPoint x="195" y="140.04" as="targetPoint" />
            <Array as="points">
              <mxPoint x="190" y="140.04" />
            </Array>
          </mxGeometry>
        </mxCell>
        <mxCell id="KCVy7kyQTgMbln99Nbsg-91" value="Show warnig about exist this product&amp;nbsp;" style="text;html=1;align=center;verticalAlign=middle;resizable=0;points=[];autosize=1;strokeColor=none;fillColor=none;" vertex="1" parent="7baba1c4bc27f4b0-2">
          <mxGeometry x="-70" y="178" width="220" height="30" as="geometry" />
        </mxCell>
        <mxCell id="KCVy7kyQTgMbln99Nbsg-129" value="" style="html=1;points=[[0,0,0,0,5],[0,1,0,0,-5],[1,0,0,0,5],[1,1,0,0,-5]];perimeter=orthogonalPerimeter;outlineConnect=0;targetShapes=umlLifeline;portConstraint=eastwest;newEdgeStyle={&quot;curved&quot;:0,&quot;rounded&quot;:0};" vertex="1" parent="7baba1c4bc27f4b0-2">
          <mxGeometry x="65" y="480" width="10" height="30" as="geometry" />
        </mxCell>
        <mxCell id="7baba1c4bc27f4b0-3" value=":Add Product Form" style="shape=umlLifeline;perimeter=lifelinePerimeter;whiteSpace=wrap;html=1;container=1;collapsible=0;recursiveResize=0;outlineConnect=0;rounded=1;shadow=0;comic=0;labelBackgroundColor=none;strokeWidth=1;fontFamily=Verdana;fontSize=12;align=center;" parent="1" vertex="1">
          <mxGeometry x="410" y="80" width="100" height="590" as="geometry" />
        </mxCell>
        <mxCell id="KCVy7kyQTgMbln99Nbsg-17" value="" style="html=1;points=[[0,0,0,0,5],[0,1,0,0,-5],[1,0,0,0,5],[1,1,0,0,-5]];perimeter=orthogonalPerimeter;outlineConnect=0;targetShapes=umlLifeline;portConstraint=eastwest;newEdgeStyle={&quot;curved&quot;:0,&quot;rounded&quot;:0};" vertex="1" parent="7baba1c4bc27f4b0-3">
          <mxGeometry x="45" y="100" width="10" height="380" as="geometry" />
        </mxCell>
        <mxCell id="KCVy7kyQTgMbln99Nbsg-114" style="edgeStyle=orthogonalEdgeStyle;rounded=0;orthogonalLoop=1;jettySize=auto;html=1;curved=0;endArrow=open;endFill=0;dashed=1;" edge="1" parent="7baba1c4bc27f4b0-3">
          <mxGeometry relative="1" as="geometry">
            <mxPoint x="45" y="344.03" as="sourcePoint" />
            <mxPoint x="-240" y="344.03" as="targetPoint" />
            <Array as="points">
              <mxPoint x="-170" y="344.03" />
              <mxPoint x="-170" y="344.03" />
            </Array>
          </mxGeometry>
        </mxCell>
        <mxCell id="7baba1c4bc27f4b0-4" value=":Product Service" style="shape=umlLifeline;perimeter=lifelinePerimeter;whiteSpace=wrap;html=1;container=1;collapsible=0;recursiveResize=0;outlineConnect=0;rounded=1;shadow=0;comic=0;labelBackgroundColor=none;strokeWidth=1;fontFamily=Verdana;fontSize=12;align=center;" parent="1" vertex="1">
          <mxGeometry x="740" y="80" width="145" height="590" as="geometry" />
        </mxCell>
        <mxCell id="KCVy7kyQTgMbln99Nbsg-23" value="" style="html=1;points=[[0,0,0,0,5],[0,1,0,0,-5],[1,0,0,0,5],[1,1,0,0,-5]];perimeter=orthogonalPerimeter;outlineConnect=0;targetShapes=umlLifeline;portConstraint=eastwest;newEdgeStyle={&quot;curved&quot;:0,&quot;rounded&quot;:0};" vertex="1" parent="7baba1c4bc27f4b0-4">
          <mxGeometry x="67.5" y="290" width="10" height="60" as="geometry" />
        </mxCell>
        <mxCell id="KCVy7kyQTgMbln99Nbsg-88" value="return" style="text;html=1;align=center;verticalAlign=middle;resizable=0;points=[];autosize=1;strokeColor=none;fillColor=none;" vertex="1" parent="7baba1c4bc27f4b0-4">
          <mxGeometry x="110" y="315" width="50" height="30" as="geometry" />
        </mxCell>
        <mxCell id="KCVy7kyQTgMbln99Nbsg-117" value="" style="html=1;points=[[0,0,0,0,5],[0,1,0,0,-5],[1,0,0,0,5],[1,1,0,0,-5]];perimeter=orthogonalPerimeter;outlineConnect=0;targetShapes=umlLifeline;portConstraint=eastwest;newEdgeStyle={&quot;curved&quot;:0,&quot;rounded&quot;:0};" vertex="1" parent="7baba1c4bc27f4b0-4">
          <mxGeometry x="67.5" y="420" width="10" height="60" as="geometry" />
        </mxCell>
        <mxCell id="KCVy7kyQTgMbln99Nbsg-126" value="return" style="text;html=1;align=center;verticalAlign=middle;resizable=0;points=[];autosize=1;strokeColor=none;fillColor=none;" vertex="1" parent="7baba1c4bc27f4b0-4">
          <mxGeometry x="95" y="430" width="50" height="30" as="geometry" />
        </mxCell>
        <mxCell id="7baba1c4bc27f4b0-5" value=":Database" style="shape=umlLifeline;perimeter=lifelinePerimeter;whiteSpace=wrap;html=1;container=1;collapsible=0;recursiveResize=0;outlineConnect=0;rounded=1;shadow=0;comic=0;labelBackgroundColor=none;strokeWidth=1;fontFamily=Verdana;fontSize=12;align=center;" parent="1" vertex="1">
          <mxGeometry x="930" y="80" width="100" height="600" as="geometry" />
        </mxCell>
        <mxCell id="KCVy7kyQTgMbln99Nbsg-66" value="" style="html=1;points=[[0,0,0,0,5],[0,1,0,0,-5],[1,0,0,0,5],[1,1,0,0,-5]];perimeter=orthogonalPerimeter;outlineConnect=0;targetShapes=umlLifeline;portConstraint=eastwest;newEdgeStyle={&quot;curved&quot;:0,&quot;rounded&quot;:0};" vertex="1" parent="7baba1c4bc27f4b0-5">
          <mxGeometry x="45" y="290" width="10" height="60" as="geometry" />
        </mxCell>
        <mxCell id="KCVy7kyQTgMbln99Nbsg-116" value="" style="html=1;points=[[0,0,0,0,5],[0,1,0,0,-5],[1,0,0,0,5],[1,1,0,0,-5]];perimeter=orthogonalPerimeter;outlineConnect=0;targetShapes=umlLifeline;portConstraint=eastwest;newEdgeStyle={&quot;curved&quot;:0,&quot;rounded&quot;:0};" vertex="1" parent="7baba1c4bc27f4b0-5">
          <mxGeometry x="45" y="160" width="10" height="60" as="geometry" />
        </mxCell>
        <mxCell id="KCVy7kyQTgMbln99Nbsg-122" value="" style="html=1;points=[[0,0,0,0,5],[0,1,0,0,-5],[1,0,0,0,5],[1,1,0,0,-5]];perimeter=orthogonalPerimeter;outlineConnect=0;targetShapes=umlLifeline;portConstraint=eastwest;newEdgeStyle={&quot;curved&quot;:0,&quot;rounded&quot;:0};" vertex="1" parent="7baba1c4bc27f4b0-5">
          <mxGeometry x="45" y="420" width="10" height="60" as="geometry" />
        </mxCell>
        <mxCell id="KCVy7kyQTgMbln99Nbsg-5" style="edgeStyle=orthogonalEdgeStyle;rounded=0;orthogonalLoop=1;jettySize=auto;html=1;dashed=1;endArrow=none;endFill=0;" edge="1" parent="1">
          <mxGeometry relative="1" as="geometry">
            <mxPoint x="166" y="660" as="targetPoint" />
            <mxPoint x="165" y="150" as="sourcePoint" />
            <Array as="points">
              <mxPoint x="165" y="160" />
              <mxPoint x="165" y="407" />
              <mxPoint x="166" y="407" />
              <mxPoint x="166" y="663" />
            </Array>
          </mxGeometry>
        </mxCell>
        <mxCell id="KCVy7kyQTgMbln99Nbsg-4" value=":User" style="shape=umlActor;verticalLabelPosition=bottom;verticalAlign=top;html=1;" vertex="1" parent="1">
          <mxGeometry x="150" y="70" width="30" height="60" as="geometry" />
        </mxCell>
        <mxCell id="KCVy7kyQTgMbln99Nbsg-6" value="" style="html=1;points=[[0,0,0,0,5],[0,1,0,0,-5],[1,0,0,0,5],[1,1,0,0,-5]];perimeter=orthogonalPerimeter;outlineConnect=0;targetShapes=umlLifeline;portConstraint=eastwest;newEdgeStyle={&quot;curved&quot;:0,&quot;rounded&quot;:0};" vertex="1" parent="1">
          <mxGeometry x="160" y="160" width="10" height="470" as="geometry" />
        </mxCell>
        <mxCell id="KCVy7kyQTgMbln99Nbsg-14" style="edgeStyle=orthogonalEdgeStyle;rounded=0;orthogonalLoop=1;jettySize=auto;html=1;curved=0;exitX=1;exitY=0;exitDx=0;exitDy=5;exitPerimeter=0;entryX=0;entryY=0;entryDx=0;entryDy=5;entryPerimeter=0;" edge="1" parent="1" source="KCVy7kyQTgMbln99Nbsg-6" target="KCVy7kyQTgMbln99Nbsg-12">
          <mxGeometry relative="1" as="geometry" />
        </mxCell>
        <mxCell id="KCVy7kyQTgMbln99Nbsg-18" style="edgeStyle=orthogonalEdgeStyle;rounded=0;orthogonalLoop=1;jettySize=auto;html=1;curved=0;exitX=1;exitY=1;exitDx=0;exitDy=-5;exitPerimeter=0;entryX=0;entryY=0;entryDx=0;entryDy=5;entryPerimeter=0;" edge="1" parent="1" source="KCVy7kyQTgMbln99Nbsg-12" target="KCVy7kyQTgMbln99Nbsg-17">
          <mxGeometry relative="1" as="geometry" />
        </mxCell>
        <mxCell id="KCVy7kyQTgMbln99Nbsg-24" style="edgeStyle=orthogonalEdgeStyle;rounded=0;orthogonalLoop=1;jettySize=auto;html=1;curved=0;" edge="1" parent="1" target="KCVy7kyQTgMbln99Nbsg-23">
          <mxGeometry relative="1" as="geometry">
            <mxPoint x="465" y="240" as="sourcePoint" />
            <mxPoint x="605" y="240" as="targetPoint" />
            <Array as="points">
              <mxPoint x="465" y="390" />
            </Array>
          </mxGeometry>
        </mxCell>
        <mxCell id="KCVy7kyQTgMbln99Nbsg-26" style="edgeStyle=orthogonalEdgeStyle;rounded=0;orthogonalLoop=1;jettySize=auto;html=1;curved=0;dashed=1;endArrow=open;endFill=0;" edge="1" parent="1" source="KCVy7kyQTgMbln99Nbsg-23" target="KCVy7kyQTgMbln99Nbsg-17">
          <mxGeometry relative="1" as="geometry">
            <Array as="points">
              <mxPoint x="750" y="420" />
              <mxPoint x="750" y="420" />
            </Array>
          </mxGeometry>
        </mxCell>
        <mxCell id="KCVy7kyQTgMbln99Nbsg-31" style="edgeStyle=orthogonalEdgeStyle;rounded=0;orthogonalLoop=1;jettySize=auto;html=1;curved=0;endArrow=open;endFill=0;dashed=1;" edge="1" parent="1" source="KCVy7kyQTgMbln99Nbsg-17" target="KCVy7kyQTgMbln99Nbsg-6">
          <mxGeometry relative="1" as="geometry">
            <mxPoint x="450" y="300" as="sourcePoint" />
            <mxPoint x="165.0000000000001" y="295.5" as="targetPoint" />
            <Array as="points">
              <mxPoint x="230" y="280" />
              <mxPoint x="230" y="280" />
            </Array>
          </mxGeometry>
        </mxCell>
        <mxCell id="KCVy7kyQTgMbln99Nbsg-67" style="edgeStyle=orthogonalEdgeStyle;rounded=0;orthogonalLoop=1;jettySize=auto;html=1;curved=0;" edge="1" parent="1" source="KCVy7kyQTgMbln99Nbsg-23" target="KCVy7kyQTgMbln99Nbsg-66">
          <mxGeometry relative="1" as="geometry">
            <Array as="points">
              <mxPoint x="900" y="390" />
              <mxPoint x="900" y="390" />
            </Array>
          </mxGeometry>
        </mxCell>
        <mxCell id="KCVy7kyQTgMbln99Nbsg-86" value="Enter product params" style="text;html=1;align=center;verticalAlign=middle;resizable=0;points=[];autosize=1;strokeColor=none;fillColor=none;" vertex="1" parent="1">
          <mxGeometry x="170" y="200" width="140" height="30" as="geometry" />
        </mxCell>
        <mxCell id="KCVy7kyQTgMbln99Nbsg-81" value="Check on exist product" style="text;html=1;align=center;verticalAlign=middle;resizable=0;points=[];autosize=1;strokeColor=none;fillColor=none;" vertex="1" parent="1">
          <mxGeometry x="465" y="365" width="150" height="30" as="geometry" />
        </mxCell>
        <mxCell id="KCVy7kyQTgMbln99Nbsg-92" value=":User Service" style="shape=umlLifeline;perimeter=lifelinePerimeter;whiteSpace=wrap;html=1;container=1;collapsible=0;recursiveResize=0;outlineConnect=0;rounded=1;shadow=0;comic=0;labelBackgroundColor=none;strokeWidth=1;fontFamily=Verdana;fontSize=12;align=center;" vertex="1" parent="1">
          <mxGeometry x="550" y="80" width="120" height="590" as="geometry" />
        </mxCell>
        <mxCell id="KCVy7kyQTgMbln99Nbsg-93" value="" style="html=1;points=[[0,0,0,0,5],[0,1,0,0,-5],[1,0,0,0,5],[1,1,0,0,-5]];perimeter=orthogonalPerimeter;outlineConnect=0;targetShapes=umlLifeline;portConstraint=eastwest;newEdgeStyle={&quot;curved&quot;:0,&quot;rounded&quot;:0};" vertex="1" parent="KCVy7kyQTgMbln99Nbsg-92">
          <mxGeometry x="55" y="148" width="10" height="90" as="geometry" />
        </mxCell>
        <mxCell id="KCVy7kyQTgMbln99Nbsg-94" value="Product exist" style="text;html=1;align=center;verticalAlign=middle;resizable=0;points=[];autosize=1;strokeColor=none;fillColor=none;" vertex="1" parent="1">
          <mxGeometry x="470" y="390" width="90" height="30" as="geometry" />
        </mxCell>
        <mxCell id="KCVy7kyQTgMbln99Nbsg-101" style="edgeStyle=orthogonalEdgeStyle;rounded=0;orthogonalLoop=1;jettySize=auto;html=1;curved=0;" edge="1" parent="1" source="KCVy7kyQTgMbln99Nbsg-17" target="KCVy7kyQTgMbln99Nbsg-93">
          <mxGeometry relative="1" as="geometry">
            <Array as="points">
              <mxPoint x="580" y="240" />
              <mxPoint x="580" y="240" />
            </Array>
          </mxGeometry>
        </mxCell>
        <mxCell id="KCVy7kyQTgMbln99Nbsg-102" value="Check user Role" style="text;html=1;align=center;verticalAlign=middle;resizable=0;points=[];autosize=1;strokeColor=none;fillColor=none;" vertex="1" parent="1">
          <mxGeometry x="470" y="210" width="110" height="30" as="geometry" />
        </mxCell>
        <mxCell id="KCVy7kyQTgMbln99Nbsg-103" style="edgeStyle=orthogonalEdgeStyle;rounded=0;orthogonalLoop=1;jettySize=auto;html=1;curved=0;" edge="1" parent="1" source="KCVy7kyQTgMbln99Nbsg-93" target="KCVy7kyQTgMbln99Nbsg-116">
          <mxGeometry relative="1" as="geometry">
            <mxPoint x="615" y="260" as="sourcePoint" />
            <mxPoint x="979.5" y="260" as="targetPoint" />
            <Array as="points">
              <mxPoint x="700" y="250" />
              <mxPoint x="700" y="250" />
            </Array>
          </mxGeometry>
        </mxCell>
        <mxCell id="KCVy7kyQTgMbln99Nbsg-104" value="request" style="text;html=1;align=center;verticalAlign=middle;resizable=0;points=[];autosize=1;strokeColor=none;fillColor=none;" vertex="1" parent="1">
          <mxGeometry x="680" y="220" width="60" height="30" as="geometry" />
        </mxCell>
        <mxCell id="KCVy7kyQTgMbln99Nbsg-105" style="edgeStyle=orthogonalEdgeStyle;rounded=0;orthogonalLoop=1;jettySize=auto;html=1;curved=0;dashed=1;endArrow=open;endFill=0;" edge="1" parent="1" source="KCVy7kyQTgMbln99Nbsg-116" target="KCVy7kyQTgMbln99Nbsg-93">
          <mxGeometry relative="1" as="geometry">
            <mxPoint x="908" y="310" as="sourcePoint" />
            <mxPoint x="730" y="300" as="targetPoint" />
            <Array as="points">
              <mxPoint x="710" y="290" />
              <mxPoint x="710" y="290" />
            </Array>
          </mxGeometry>
        </mxCell>
        <mxCell id="KCVy7kyQTgMbln99Nbsg-107" value="return" style="text;html=1;align=center;verticalAlign=middle;resizable=0;points=[];autosize=1;strokeColor=none;fillColor=none;" vertex="1" parent="1">
          <mxGeometry x="680" y="268" width="50" height="30" as="geometry" />
        </mxCell>
        <mxCell id="KCVy7kyQTgMbln99Nbsg-108" style="edgeStyle=orthogonalEdgeStyle;rounded=0;orthogonalLoop=1;jettySize=auto;html=1;curved=0;endArrow=open;endFill=0;dashed=1;" edge="1" parent="1" source="KCVy7kyQTgMbln99Nbsg-93" target="KCVy7kyQTgMbln99Nbsg-17">
          <mxGeometry relative="1" as="geometry">
            <mxPoint x="657" y="340" as="sourcePoint" />
            <mxPoint x="470" y="270" as="targetPoint" />
            <Array as="points">
              <mxPoint x="470" y="280" />
              <mxPoint x="470" y="280" />
            </Array>
          </mxGeometry>
        </mxCell>
        <mxCell id="KCVy7kyQTgMbln99Nbsg-109" value="accessible&amp;nbsp;" style="text;html=1;align=center;verticalAlign=middle;resizable=0;points=[];autosize=1;strokeColor=none;fillColor=none;" vertex="1" parent="1">
          <mxGeometry x="470" y="258" width="80" height="30" as="geometry" />
        </mxCell>
        <mxCell id="KCVy7kyQTgMbln99Nbsg-110" style="edgeStyle=orthogonalEdgeStyle;rounded=0;orthogonalLoop=1;jettySize=auto;html=1;curved=0;endArrow=open;endFill=0;dashed=1;" edge="1" parent="1">
          <mxGeometry relative="1" as="geometry">
            <mxPoint x="605" y="310" as="sourcePoint" />
            <mxPoint x="465" y="311" as="targetPoint" />
            <Array as="points">
              <mxPoint x="605" y="311" />
            </Array>
          </mxGeometry>
        </mxCell>
        <mxCell id="KCVy7kyQTgMbln99Nbsg-111" value="not accessible&amp;nbsp;" style="text;html=1;align=center;verticalAlign=middle;resizable=0;points=[];autosize=1;strokeColor=none;fillColor=none;" vertex="1" parent="1">
          <mxGeometry x="470" y="288" width="100" height="30" as="geometry" />
        </mxCell>
        <mxCell id="KCVy7kyQTgMbln99Nbsg-112" style="edgeStyle=orthogonalEdgeStyle;rounded=0;orthogonalLoop=1;jettySize=auto;html=1;curved=0;endArrow=open;endFill=0;dashed=1;" edge="1" parent="1" source="KCVy7kyQTgMbln99Nbsg-17" target="KCVy7kyQTgMbln99Nbsg-6">
          <mxGeometry relative="1" as="geometry">
            <mxPoint x="450" y="310" as="sourcePoint" />
            <mxPoint x="310" y="310" as="targetPoint" />
            <Array as="points">
              <mxPoint x="240" y="310" />
              <mxPoint x="240" y="310" />
            </Array>
          </mxGeometry>
        </mxCell>
        <mxCell id="KCVy7kyQTgMbln99Nbsg-113" value="Show warning that accses denied" style="text;html=1;align=center;verticalAlign=middle;resizable=0;points=[];autosize=1;strokeColor=none;fillColor=none;" vertex="1" parent="1">
          <mxGeometry x="190" y="288" width="200" height="30" as="geometry" />
        </mxCell>
        <mxCell id="KCVy7kyQTgMbln99Nbsg-85" value="request on exist product" style="text;html=1;align=center;verticalAlign=middle;resizable=0;points=[];autosize=1;strokeColor=none;fillColor=none;" vertex="1" parent="1">
          <mxGeometry x="825" y="360" width="150" height="30" as="geometry" />
        </mxCell>
        <mxCell id="KCVy7kyQTgMbln99Nbsg-115" value="Show warning that prouduct already has there" style="text;html=1;align=center;verticalAlign=middle;resizable=0;points=[];autosize=1;strokeColor=none;fillColor=none;" vertex="1" parent="1">
          <mxGeometry x="190" y="395" width="270" height="30" as="geometry" />
        </mxCell>
        <mxCell id="KCVy7kyQTgMbln99Nbsg-69" style="edgeStyle=orthogonalEdgeStyle;rounded=0;orthogonalLoop=1;jettySize=auto;html=1;curved=0;endArrow=open;endFill=0;dashed=1;" edge="1" parent="1" source="KCVy7kyQTgMbln99Nbsg-66" target="KCVy7kyQTgMbln99Nbsg-23">
          <mxGeometry relative="1" as="geometry">
            <mxPoint x="975" y="440" as="sourcePoint" />
            <mxPoint x="820" y="300" as="targetPoint" />
            <Array as="points">
              <mxPoint x="860" y="420" />
              <mxPoint x="860" y="420" />
            </Array>
          </mxGeometry>
        </mxCell>
        <mxCell id="KCVy7kyQTgMbln99Nbsg-118" style="edgeStyle=orthogonalEdgeStyle;rounded=0;orthogonalLoop=1;jettySize=auto;html=1;curved=0;" edge="1" parent="1" source="KCVy7kyQTgMbln99Nbsg-17" target="KCVy7kyQTgMbln99Nbsg-117">
          <mxGeometry relative="1" as="geometry">
            <Array as="points">
              <mxPoint x="640" y="500" />
              <mxPoint x="640" y="500" />
            </Array>
          </mxGeometry>
        </mxCell>
        <mxCell id="KCVy7kyQTgMbln99Nbsg-119" value="Create prouct" style="text;html=1;align=center;verticalAlign=middle;resizable=0;points=[];autosize=1;strokeColor=none;fillColor=none;" vertex="1" parent="1">
          <mxGeometry x="475" y="470" width="100" height="30" as="geometry" />
        </mxCell>
        <mxCell id="KCVy7kyQTgMbln99Nbsg-121" style="edgeStyle=orthogonalEdgeStyle;rounded=0;orthogonalLoop=1;jettySize=auto;html=1;curved=0;dashed=1;endArrow=open;endFill=0;" edge="1" parent="1" source="KCVy7kyQTgMbln99Nbsg-117" target="KCVy7kyQTgMbln99Nbsg-17">
          <mxGeometry relative="1" as="geometry">
            <mxPoint x="781.5" y="590" as="sourcePoint" />
            <mxPoint x="438.5" y="590" as="targetPoint" />
            <Array as="points">
              <mxPoint x="640" y="560" />
              <mxPoint x="640" y="560" />
            </Array>
          </mxGeometry>
        </mxCell>
        <mxCell id="KCVy7kyQTgMbln99Nbsg-123" style="edgeStyle=orthogonalEdgeStyle;rounded=0;orthogonalLoop=1;jettySize=auto;html=1;curved=0;" edge="1" parent="1" source="KCVy7kyQTgMbln99Nbsg-117" target="KCVy7kyQTgMbln99Nbsg-122">
          <mxGeometry relative="1" as="geometry">
            <Array as="points">
              <mxPoint x="900" y="520" />
              <mxPoint x="900" y="520" />
            </Array>
          </mxGeometry>
        </mxCell>
        <mxCell id="KCVy7kyQTgMbln99Nbsg-124" value="request on create" style="text;html=1;align=center;verticalAlign=middle;resizable=0;points=[];autosize=1;strokeColor=none;fillColor=none;" vertex="1" parent="1">
          <mxGeometry x="825" y="490" width="120" height="30" as="geometry" />
        </mxCell>
        <mxCell id="KCVy7kyQTgMbln99Nbsg-125" style="edgeStyle=orthogonalEdgeStyle;rounded=0;orthogonalLoop=1;jettySize=auto;html=1;curved=0;endArrow=open;endFill=0;dashed=1;exitX=0;exitY=1;exitDx=0;exitDy=-5;exitPerimeter=0;" edge="1" parent="1" source="KCVy7kyQTgMbln99Nbsg-122">
          <mxGeometry relative="1" as="geometry">
            <mxPoint x="963.5" y="570" as="sourcePoint" />
            <mxPoint x="818" y="540" as="targetPoint" />
            <Array as="points">
              <mxPoint x="975" y="540" />
              <mxPoint x="818" y="540" />
            </Array>
          </mxGeometry>
        </mxCell>
        <mxCell id="KCVy7kyQTgMbln99Nbsg-132" style="edgeStyle=orthogonalEdgeStyle;rounded=0;orthogonalLoop=1;jettySize=auto;html=1;curved=0;dashed=1;endArrow=open;endFill=0;exitX=0.25;exitY=0.495;exitDx=0;exitDy=0;exitPerimeter=0;" edge="1" parent="1" source="KCVy7kyQTgMbln99Nbsg-117" target="KCVy7kyQTgMbln99Nbsg-17">
          <mxGeometry relative="1" as="geometry">
            <mxPoint x="798" y="529.71" as="sourcePoint" />
            <mxPoint x="455" y="529.71" as="targetPoint" />
            <Array as="points">
              <mxPoint x="640" y="530" />
              <mxPoint x="640" y="530" />
            </Array>
          </mxGeometry>
        </mxCell>
        <mxCell id="KCVy7kyQTgMbln99Nbsg-128" value="Product create successful" style="text;html=1;align=center;verticalAlign=middle;resizable=0;points=[];autosize=1;strokeColor=none;fillColor=none;" vertex="1" parent="1">
          <mxGeometry x="475" y="530" width="160" height="30" as="geometry" />
        </mxCell>
        <mxCell id="KCVy7kyQTgMbln99Nbsg-133" value="Error create product" style="text;html=1;align=center;verticalAlign=middle;resizable=0;points=[];autosize=1;strokeColor=none;fillColor=none;" vertex="1" parent="1">
          <mxGeometry x="475" y="500" width="130" height="30" as="geometry" />
        </mxCell>
        <mxCell id="KCVy7kyQTgMbln99Nbsg-130" style="edgeStyle=orthogonalEdgeStyle;rounded=0;orthogonalLoop=1;jettySize=auto;html=1;curved=0;endArrow=open;endFill=0;dashed=1;" edge="1" parent="1">
          <mxGeometry relative="1" as="geometry">
            <mxPoint x="455" y="560" as="sourcePoint" />
            <mxPoint x="334.97" y="560" as="targetPoint" />
            <Array as="points">
              <mxPoint x="454.97" y="560" />
              <mxPoint x="334.97" y="560" />
            </Array>
          </mxGeometry>
        </mxCell>
        <mxCell id="KCVy7kyQTgMbln99Nbsg-131" value="Redirect to the &lt;br&gt;success page" style="text;html=1;align=center;verticalAlign=middle;resizable=0;points=[];autosize=1;strokeColor=none;fillColor=none;" vertex="1" parent="1">
          <mxGeometry x="340" y="560" width="100" height="40" as="geometry" />
        </mxCell>
        <mxCell id="KCVy7kyQTgMbln99Nbsg-137" style="edgeStyle=orthogonalEdgeStyle;rounded=0;orthogonalLoop=1;jettySize=auto;html=1;curved=0;dashed=1;endArrow=open;endFill=0;" edge="1" parent="1" source="KCVy7kyQTgMbln99Nbsg-17" target="KCVy7kyQTgMbln99Nbsg-6">
          <mxGeometry relative="1" as="geometry">
            <mxPoint x="390" y="540" as="sourcePoint" />
            <mxPoint x="45" y="540" as="targetPoint" />
            <Array as="points">
              <mxPoint x="240" y="540" />
              <mxPoint x="240" y="540" />
            </Array>
          </mxGeometry>
        </mxCell>
        <mxCell id="KCVy7kyQTgMbln99Nbsg-138" value="Show warning that product not create" style="text;html=1;align=center;verticalAlign=middle;resizable=0;points=[];autosize=1;strokeColor=none;fillColor=none;" vertex="1" parent="1">
          <mxGeometry x="190" y="510" width="220" height="30" as="geometry" />
        </mxCell>
      </root>
    </mxGraphModel>
  </diagram>
</mxfile>
